<svg version="1.1" xmlns="http://www.w3.org/2000/svg" viewBox="0 0 820.9523315429688 567.9809085387965" width="820.9523315429688" height="567.9809085387965">
  <!-- svg-source:excalidraw -->
  
  <defs>
    <style>
      @font-face {
        font-family: "Virgil";
        src: url("https://excalidraw.com/FG_Virgil.woff2");
      }
      @font-face {
        font-family: "Cascadia";
        src: url("https://excalidraw.com/Cascadia.woff2");
      }
    </style>
  </defs>
  <rect x="0" y="0" width="820.9523315429688" height="567.9809085387965" fill="#ffffff"></rect><g transform="translate(565.3794555664062 10) rotate(0 122.78643798828125 236.10224642942148)"><path d="M62.814545568078756 0.8550505675375462 M63.28204083815217 -0.6807677187025547 C85.50796414900682 -0.4569231493685526, 113.02270963393374 -0.1634717209551615, 186.0964592732489 1.9633805118501186 M61.277329413220286 -0.10596060566604137 C87.21770082075989 -0.5600852307244952, 114.10310816274772 -1.0489406522676166, 184.051736978814 -0.8264941554516554 M184.17965698242188 0 C225.0529396298031 -0.489372368901968, 247.07925670966506 18.968773925056063, 246.17412036284804 60.0609893836081 M184.50777130946517 -1.5933192931115627 C224.19832466511676 0.9916672570630909, 246.74304166901857 22.132546878171468, 246.58993852008135 60.21925719212741 M245.1429055803847 60.352599238965226 C242.9168589326844 162.95461602008626, 242.953168903952 265.3602486492146, 244.78898976429548 411.35308391526144 M246.08001614945147 61.60723369915686 C244.726233576649 154.76748678059803, 243.70204279877035 248.77850320314113, 245.76946081047862 410.9879218547928 M245.5728759765625 410.81127386470234 C246.06236916407943 452.0657411570807, 224.78309593225518 474.089996154652, 183.78302448615432 470.35726552759206 M244.70246797427535 411.34659546171224 C244.73946037758142 453.53570811163235, 223.75795909433313 472.90969282002095, 184.76478763688357 473.0463143786872 M183.6921546496451 471.9793873906592 C145.50158206533968 472.62364370991884, 102.43137462385651 469.46822734048067, 61.76540792360902 474.1363072276572 M184.24291536025703 471.74964933958745 C156.11728821569244 473.7914202503912, 127.2904567712011 472.88893720433634, 61.366604236885905 471.4835454162667 M61.393218994140625 472.20449285884297 C18.873419181754194 473.66379326139486, 1.8897315822541714 450.97329351856905, -1.7080012001097202 411.8853433683971 M59.52788668498397 470.7485975578884 C18.523449636188648 473.0838592669452, -0.9041144980117677 454.0291530014162, -1.7503832353278992 410.8621213516677 M-0.24869360081807548 411.76446917377353 C-2.115437354753082 322.56506020300975, -1.5941822598378468 233.41622408085493, -0.8462788223030422 62.65755786007222 M0.5179032294559052 411.13145117074225 C-0.4006165994447642 298.97702572773346, 0.26221068041819884 186.76419953287817, 0.5034350714046449 61.1114521517485 M0 61.393218994140625 C0.9149430356919765 21.679682218780123, 19.046767012526594 1.1324396170675755, 63.05352133139968 0.45412183180451393 M-0.007244531065225601 59.69245994463563 C-1.8328170968219637 20.350325638366243, 19.875273854223394 -0.813804836757481, 59.85212854016572 1.2226961774751541" stroke="#000000" stroke-width="1" fill="none"></path></g><g transform="translate(555.3202514648438 18.60369873046875) rotate(0 122.78643798828125 236.10224642942148)"><path d="M62.69440234079957 1.4213265739381313 M60.30912893638015 1.8888218440115452 C102.79781334631213 -0.6879616652496645, 144.4414622032656 1.373489173792999, 183.35062747821212 1.916802290827036 M61.50371772237122 -0.11588958092033863 C110.17701475824319 -0.4113037342490077, 158.74832395537004 -0.17477432436360119, 183.26639378257096 -0.12792000360786915 M184.17965698242188 0 C223.77624003464976 -0.055530015379190445, 245.08350360766053 21.97078706448277, 243.9198876656592 61.99446338042617 M182.68402457609773 0.3281143270432949 C223.93450784316906 -0.9101449800655246, 246.56454323362559 21.634572023836277, 243.7405587894842 62.410281537659465 M245.0036473864481 60.963248597962824 C244.3466754367735 190.30713619213174, 244.97431195395677 320.5114028467642, 245.59114510376094 410.0273876524353 M245.25105863875956 61.900359167029606 C245.0656697367255 181.30106867863475, 244.48046285281208 299.64456181605783, 245.4672402548538 411.00785869861846 M245.5728759765625 410.81127386470234 C243.7256486453116 452.2295797149797, 225.4341242748002 471.87911914591587, 184.7224177159369 471.8078603625754 M247.45837927237153 409.9408658624152 C246.41469749640675 450.9066709284817, 226.90409122935185 470.8539823079938, 184.79527681898327 472.78962351330466 M182.46201103553176 471.7169905260662 C143.35388136547022 475.27793835698554, 104.45198567368014 472.81975113450477, 59.71147161349654 472.57668178831136 M185.0848808903247 472.2677512366781 C135.02885180661804 471.68317569811745, 87.26316886854121 471.1671950372021, 60.96617114730179 472.17787810158825 M61.393218994140625 472.20449285884297 C21.538475835074983 470.61350570921695, 1.4593004025518894 453.62981810971695, -1.4418948851525784 409.1032726645926 M60.6264259852469 470.3391605496863 C20.51525381834557 470.2635361636514, 0.8793664081022143 450.835972029451, -1.6742795960977672 409.06089062937446 M-1.1767952417853131 410.5625802638843 C2.0135180652495657 270.3861868092731, 1.3500235745818017 131.30632306048844, -0.3232208236553564 60.54694017183758 M0.07646945173402592 411.32917709415824 C-0.14884084206759984 271.79041516622226, -0.27242863659631056 133.69277084509403, 0.014600965135936185 61.89665406554527 M0 61.393218994140625 C0.45412183180451393 21.379349367072187, 21.679682218780123 -1.4176393188536167, 60.52747476473451 1.6603023372590542 M1.1324396170675755 61.3859744630754 C1.2226961774751541 18.63158923455825, 20.350325638366243 -0.5891324771568178, 59.43734608720988 -1.5410904539749026" stroke="#000000" stroke-width="1" fill="none"></path></g><g transform="translate(548.4609985351562 28.76312255859375) rotate(0 122.78643798828125 236.10224642942148)"><path d="M60.35585289821029 1.301183346658945 M60.33351266756654 -1.084090057760477 C108.84395359623409 0.4574959563574579, 151.1784950192864 0.015782742436864616, 184.90255833044648 -0.8290295042097569 M61.056787399575114 0.11049872823059559 C109.88112709062614 0.9127447407721536, 157.77641824346915 0.5942975681303995, 183.5917902868241 -0.9132631998509169 M184.17965698242188 0 C225.70971403146783 -1.3322296105325222, 245.5173459611833 19.975033962478243, 245.31703596934676 59.740230683237314 M185.68603771552444 -1.4956324063241482 C226.12553218870113 -1.1739618020132183, 244.66273099649698 21.456073588443303, 245.95020745266228 59.56090180706233 M244.77041168545784 60.82399040402624 C246.79251231042366 182.9552774451017, 245.96844322122772 306.18559216842146, 244.35514646245636 410.8295429919008 M245.17598516059718 61.07140165633768 C247.02660721932983 145.3930202371972, 247.05963281563328 228.59359989132412, 245.08885096787625 410.7056381429936 M245.5728759765625 410.81127386470234 C245.17624348029494 449.8928591962119, 225.5979628326992 472.5301474884609, 184.78367477282882 472.747253592358 M245.2475022636354 412.6967771605114 C246.1580066310242 452.581908047307, 224.2750540462012 474.00011444301254, 183.17868777979166 472.82011269540436 M186.0357254780829 470.48684691195285 C154.06597890552408 472.35699627291103, 126.86125079610002 474.0557707298889, 60.86897707358003 470.5227454781989 M183.55271544866264 473.1097167667458 C145.12199631836785 470.8971412782966, 106.18630091549008 471.8274199967681, 61.12572035007179 471.77744501200414 M61.393218994140625 472.20449285884297 C18.75640513127049 473.27856236253774, -1.5909871496260166 453.19938693001467, -0.05322951450943947 409.36937897954977 M63.282950576394796 471.43769984994924 C18.714023096052312 472.25534034580835, -1.940956695191562 452.619452935565, -2.1451321555301543 409.13699426860455 M0.7392114546010818 409.634478622917 C-2.512327482389714 320.67444094197657, -3.087602093300978 228.92091821951192, -0.30271311681410384 61.06999817048527 M0.04013229997741035 410.88774331643634 C-1.6910109066994325 329.0202921545963, -2.4693012336442157 246.7855453439216, 0.4024401823740849 61.40781995927656 M0 61.393218994140625 C1.6603023372590542 20.918528163184725, 21.379349367072187 1.2152758873999119, 62.94005113467574 -0.8657442294061184 M-1.4176393188536167 62.5256586112082 C-1.5410904539749026 21.687102508855364, 18.63158923455825 -0.11408069301396617, 61.384887783415614 -1.9558729069307446" stroke="#000000" stroke-width="1" fill="none"></path></g><g transform="translate(10 36.136853363015234) rotate(0 122.78643798828125 236.10224642942148)"><path d="M62.67754102125764 -0.49142903462052345 M60.3624148927629 -1.9447776041924953 C86.99710805632046 -0.9014438652524643, 114.585960002837 -1.3802647852430039, 184.28052705153823 1.099106315523386 M61.75680744834244 0.7782727759331465 C91.85529573976231 -1.4054968617482828, 123.02348808696831 -1.0797092578931498, 184.98953241296113 -0.5030924398452044 M184.17965698242188 0 C224.0388243633012 -0.8474016822874546, 244.64627027884126 20.28077162926396, 244.02254844084382 61.53274231776595 M183.94895112887025 -0.402256790548563 C222.83861986628423 -0.518677188269794, 246.30632100533694 18.38939030238738, 244.03470892142505 61.13130045402795 M244.40936388267488 61.82615519899098 C247.89595579791524 196.23753143816728, 246.82210039598593 328.25188575979433, 246.0278529464002 410.82929247746426 M245.24968041410298 61.76632335644888 C245.0350935198467 169.44827701733706, 244.16324384199473 279.170743437555, 245.26067164225466 410.5879796451991 M245.5728759765625 410.81127386470234 C246.95657861605287 452.4501973669191, 226.86880104119578 473.1613098264197, 182.22579718008637 473.43797432188785 M244.0847178734839 411.931480157421 C244.2817722423002 449.6717299525772, 226.46824334493527 472.440753635251, 185.87930617760867 470.37079372056667 M186.09984594210982 473.64576595579183 C140.9304287853201 473.56697657790664, 98.34456494273934 471.62564650264267, 59.499845918267965 473.1927474096874 M185.04166782088578 472.32967634987926 C147.85854321711963 473.58910255803113, 109.72339415351463 472.9424093879605, 60.517762841656804 473.06055631232357 M61.393218994140625 472.20449285884297 C19.6503491041561 472.848077523754, -1.524640079587698 451.83880474969345, -1.9220740757882595 410.3735614896277 M62.620524290949106 471.45847510103977 C19.76040359170487 474.08824599035927, -2.1525885777547953 453.5368497257267, 1.123335043899715 410.5171779478425 M1.0116073899608975 409.79415431327897 C1.849381726049463 327.1868813761117, 1.761040097877224 244.8088486783724, 0.28770970027223275 61.3139925147594 M-0.5408163938124748 411.02051634366126 C-1.3283352575578389 292.597349752763, -2.2234215788665113 174.99564370007798, -0.14693951191672364 60.943792262456356 M0 61.393218994140625 C0.2032860554754734 21.285590187956892, 19.83034714435538 1.328983124345541, 60.52320957556367 -0.22464412823319435 M-0.6556047163903713 62.69795411452651 C-1.6686542170122265 18.856696934190893, 21.324094605756304 1.412692408449948, 62.39256456326693 -0.790032703988254" stroke="#000000" stroke-width="1" fill="none"></path></g><g transform="translate(275.30908203125 38.6962890625) rotate(0 122.78643798828125 236.10224642942148)"><path d="M63.09514391794801 1.6179971061646938 M60.49701040610671 -0.8847529850900173 C88.11616759247215 -1.5967391708700474, 113.28091422585906 -2.015268800577384, 183.95501285418868 0.2032860554754734 M61.06541663594544 0.6523675601929426 C103.7051604982847 -1.1593979999195234, 144.42260402187884 -1.514909605659117, 184.55343449302018 0.6142140906304121 M184.17965698242188 0 C225.2809855180482 -0.48630088940262794, 247.34264362230897 20.918434159209333, 247.02961361780763 59.57589953765273 M184.55693412199616 -0.4551956094801426 C223.56486749282726 -0.41949632894247757, 245.2655815942213 22.057276339021826, 244.7135209782049 62.268093274720016 M245.27786858294147 60.704442349383484 C245.73629994413537 172.27072564308776, 244.08792734766578 283.9549278255626, 246.5229647999258 411.0484988316845 M245.68819457955664 61.2355746397706 C245.9537811372679 166.92847810610178, 246.11246467794663 272.3422227754359, 245.69508252139585 411.17023709808495 M245.5728759765625 410.81127386470234 C244.29387069121003 452.87595727845627, 226.72549085194865 471.4351646781424, 183.92687023058534 473.935194957302 M245.33226538076997 412.29720436339176 C247.12430519293994 452.7797902827297, 226.64844013682256 472.12009482630435, 183.43342455457895 473.4189684534902 M183.67918938025832 474.1328688219646 C139.31767821636942 472.9449651961068, 91.55302603075202 471.94429750487603, 60.532653864473104 471.8651186779598 M184.08505636639893 471.7381568152914 C158.69212226459172 473.8363157562484, 134.7692218084144 473.259544079708, 60.59793842025101 471.21591063332653 M61.393218994140625 472.20449285884297 C21.60767444347342 470.8995317101935, 0.22039354220032692 450.3567620794435, 0.29478419199585915 412.3390056968192 M62.938788656145334 470.3976474881629 C18.207234561753772 471.8660012210245, -0.12984913755208272 453.5923677508866, 2.0321786863729354 411.108643772685 M0.4997094639157368 411.6475760726327 C-0.4322469314994811 286.71756304229405, -0.07644785597750658 163.4434675183724, -1.1216893015899456 60.186109216445985 M0.4328755622186054 410.18573459662116 C0.22093764355562473 313.2015929481504, 0.1699749129104049 216.48385452524715, -0.55023470847707 61.31593662536365 M0 61.393218994140625 C0.46179700270295143 19.86752380554875, 20.34800192092856 1.0427030883729458, 63.233880404382944 -1.4330661930143833 M0.32077885046601295 61.70910983905196 C1.0001749677583573 18.310274995056293, 21.390670639586947 -0.29557855259627086, 61.81523991655558 -2.0280541075393557" stroke="#000000" stroke-width="1" fill="none"></path></g><g transform="translate(538.0322265625 38.32489013671875) rotate(0 122.78643798828125 236.10224642942148)"><path d="M62.588186506181955 -1.7232262529432774 L182.32520115748048 -0.4371257461607456 L204.54686582461 0.6399556957185273 L217.88502145186067 4.073427494615318 L225.0902873314917 10.456744607537987 L232.60785389319062 19.577138479799036 L240.04517317190766 34.29623132571578 L246.45426834002137 45.57111709937453 L246.03467297926545 60.796336468309164 L245.216654304415 419.288312065647 L243.73529947176576 431.99126647715366 L237.30642927065492 446.459241378353 L227.01739514246583 458.5802893519858 L211.844637516886 468.1103918433646 L199.7232036627829 472.64467226271427 L184.9558185376227 470.2989239573935 L47.28774142637849 470.8799096227149 L36.4524518288672 469.1279857039908 L20.852955464273695 459.72447799448764 L11.686455253511669 450.9279101968268 L3.657583002001048 437.35526763205326 L1.550008896738291 424.80360673670566 L-1.2422947846353054 411.99972473387515 L0.6711748875677587 48.411023791879416 L7.593182448297741 30.051867421716455 L10.939601663500072 18.20417028293014 L19.186740521341566 13.1605665050447 L33.506523970514536 5.713994678109885 L47.736661199480295 2.4003222547471523 L62.472620610147715 -0.2045937217772007" stroke="none" stroke-width="0" fill="#ffffff"></path><path d="M61.44967508688569 1.192052897065878 M63.05671530589461 -1.3695353232324123 C107.12280838140347 -0.5641864312072231, 155.32543328674632 -0.4070591700454189, 185.6635405384004 0.5431306399405003 M62.38735079951584 -0.26362273283302784 C107.85422466385857 -0.4162030274820734, 153.20781918554994 -0.4415316040468622, 183.77065330930054 0.9836947601288557 M184.17965698242188 0 C224.3131480651597 1.032010730355978, 245.76284098997712 22.26556886856755, 245.43240833655 60.87976795062423 M184.09648955240846 1.4249858222901821 C227.2884137176598 -1.5196774376556275, 245.42328290175647 21.457092369285725, 247.28709791135043 59.20023314226419 M245.28001714373394 60.26978258047592 C245.11407418654437 162.7835909790458, 245.078845595724 263.4707305328845, 244.91378696812848 410.48649441010787 M245.74499277617306 61.24949388240252 C243.32717969102154 150.47453777193556, 243.57155052714006 239.82633658312452, 245.7559467581555 410.87693627980616 M245.5728759765625 410.81127386470234 C246.39061606302857 452.87180033132034, 226.06549565369883 472.8069499612311, 182.92183566465974 471.91166316275394 M246.7796653546393 411.74134300951755 C246.57256111931056 453.54161211896286, 223.55029694667707 472.2501633132333, 183.4524997634813 474.1983773792619 M185.57579308375716 473.0902404144863 C141.0792638540451 470.7074359214748, 98.75491098541704 473.7428743398632, 61.65767019614577 473.5284648493389 M184.19325304217637 472.4998932678709 C137.70286152030098 471.34986242442994, 92.62433714014925 471.2363304176894, 61.03428107686341 471.91228797030544 M61.393218994140625 472.20449285884297 C19.483358108748995 472.02573822741306, -0.6648137532174587 452.51540496751267, 1.9556508101522923 412.0315307260016 M62.78963864222169 470.77732537989414 C20.598583978724978 472.29370783814136, 0.8962657136842607 452.38235178041805, 1.3784172100946308 409.38842234262177 M0.3098763699210177 410.6203247847863 C0.14428070052608327 323.34737393378515, 1.5134710659504926 236.93504051873074, 0.8107469467899413 60.80534470496231 M-0.28289621608037985 410.2114087302687 C-1.1333891637144062 295.4411718206651, -0.7504774764499546 179.710856546286, -0.38011007575866484 61.345073411212546 M0 61.393218994140625 C0.8620244301855564 19.245675818373762, 19.123812997092806 0.21916061267256737, 60.66562867537141 -1.5122773088514805 M-0.8980656825006008 62.86465900763869 C2.0889391643926496 19.04681072899451, 21.307083571267626 -0.926953394524753, 61.25624429415912 -1.7057428075000642" stroke="#000000" stroke-width="1" fill="none"></path></g><g transform="translate(53.4515380859375 50.469983245827734) rotate(0 79 11.5)"><text x="0" y="18" font-family="Helvetica, Segoe UI Emoji" font-size="20px" fill="#000000" text-anchor="start" style="white-space: pre;" direction="ltr">Execution context</text></g><g transform="translate(320.5690002441406 53.007214691140234) rotate(0 79 11.5)"><text x="0" y="18" font-family="Helvetica, Segoe UI Emoji" font-size="20px" fill="#000000" text-anchor="start" style="white-space: pre;" direction="ltr">Execution context</text></g><g transform="translate(585.2312316894531 56.001172210671484) rotate(0 79 11.5)"><text x="0" y="18" font-family="Helvetica, Segoe UI Emoji" font-size="20px" fill="#000000" text-anchor="start" style="white-space: pre;" direction="ltr">Execution context</text></g><g transform="translate(66.59578857737449 93.77430453489023) rotate(0 63.160742184344315 45.714111328125)"><path d="M24.07618373259902 0.5309963263571262 L103.18809828946661 1.2545298375189304 L114.87417743394445 1.2508714236319065 L119.11333809087347 6.518777493387461 L123.56781170556616 12.632344726473093 L125.45842347333502 22.044576052576303 L126.76101682374548 74.17652058973908 L118.97433099935125 84.50715744867921 L111.95924589822363 91.16180134192109 L105.34953723142218 91.50191963091493 L24.283719714730978 89.92861247435212 L13.174003418534994 91.54332030192018 L3.901090558618307 86.02282381430268 L1.5831318460404873 73.70853650942445 L0.6647111736238003 16.19590211287141 L6.827591236680746 7.137359742075205 L11.115713533014059 3.2611656226217747 L24.27445274218917 -0.8256417475640774" stroke="none" stroke-width="0" fill="#ced4da"></path><path d="M24.30425899848342 1.9521558322012424 M22.20759153738618 1.7171412073075771 C49.23480510266309 0.5715702366529747, 73.75225685763726 1.995461423367147, 102.5020407889254 0.5729212127625942 M23.62400802783668 -0.44244825653731823 C45.52312540378158 -1.348607015885464, 66.44430508136222 0.316739070139774, 102.8008745409764 -0.4230335336178541 M103.46442870462607 0 C119.62390051076483 -1.425752516835928, 127.82174418160986 6.660448078066111, 125.81808183381628 23.1132948435843 M104.30895171353887 1.9701632298529148 C119.06831896139603 0.6972779018804429, 126.42308603955726 8.433273057453334, 128.333142833247 21.622798363678157 M127.565256163872 20.96538096293807 C125.24853331415429 33.458993231253544, 127.73283571569695 42.719020141903, 125.86179129818748 66.72696083411574 M125.3476998903073 23.306499721482396 C125.44696828755394 33.25598697905866, 125.99550941618935 41.76944098773356, 125.77170462386977 68.15310484357178 M126.32148436868857 68.5711669921875 C124.82653174588751 84.9511488713324, 117.51844737718176 89.67425895109773, 102.90847704598974 91.08570862188935 M124.73947296330999 67.29861796274781 C127.4171362025879 85.81887825559825, 118.28355527354698 91.79752439688892, 104.36809860898475 90.67817595433444 M102.0514028523333 91.2573066316545 C75.51236233818636 91.45653143723847, 43.7638529824867 93.14932826360108, 23.48137152567506 91.77917855605483 M103.61122787969481 91.57120239920914 C75.05829828181975 91.13865265388802, 47.396815751205416 91.38304689665154, 22.306540755555034 91.52307409234345 M22.8570556640625 91.42822265625 C6.932761009782553 93.0902725495398, 0.810398992151022 82.5789542235434, 1.1473433338105679 67.98123336210847 M21.465193804353476 92.86439264193177 C7.082122425921261 91.31519098114222, -0.5519891275092959 81.94203010033816, 1.5655856715515255 67.55711845587939 M-1.47239613160491 70.53749829158187 C0.8899644940732969 49.02139314090732, 1.729628834092523 34.68234716381676, -1.7191501818597317 21.758627112954855 M0.719035355374217 69.12680626101792 C-0.5931171094796582 50.15130313599161, 0.765413948354967 34.07741324643893, -0.24730262346565723 23.31211835332215 M0 22.8570556640625 C-0.3780660070478916 5.994792345911264, 8.595694717019796 1.1350319422781467, 23.519202169030905 -1.5260586701333523 M1.1268857084214687 22.757086876779795 C-0.9099645687267184 8.11932154726237, 7.744773136265576 -1.7005926446989177, 21.024725102074445 0.3714422745630146" stroke="#000000" stroke-width="1" fill="none"></path></g><g transform="translate(98.511962890625 127.73304476926523) rotate(0 31.5 11.5)"><text x="31.5" y="18" font-family="Helvetica, Segoe UI Emoji" font-size="20px" fill="#000000" text-anchor="middle" style="white-space: pre;" direction="ltr">Emitter</text></g><g transform="translate(301.45290527659336 103.51630892942148) rotate(0 40.93338596093747 29.626525878906264)"><path d="M13.31288760527969 -0.6177558861672878 L67.35912780127109 0.5260046757757664 L72.30601589045108 1.8675706423819067 L76.97747520765842 3.215461377054454 L79.7232371982056 8.456273559480909 L82.45162705740512 14.35551011934877 L81.44893543085635 47.19850421324374 L78.0325599130112 57.05569374933841 L71.61972205004275 59.178994182497284 L66.90875033697665 59.608477476984284 L15.568153079599147 58.55500674620273 L9.001704987138513 59.43252241984012 L5.620101865381003 56.733042243868134 L-0.3939527906477451 46.74437511339785 L-1.1652177013456821 12.445627931505447 L5.675569828599692 2.380674485117198 L7.116693910211328 2.6614341773092747 L14.213976439088588 -0.15865909680724144" stroke="none" stroke-width="0" fill="#ced4da"></path><path d="M16.18000095710159 1.8108499087393284 M14.939118865877395 -0.8085755743086338 C30.52167129439146 0.0018596369410871505, 43.27219628760279 0.06704721037400951, 65.26188789716542 0.6585935913026333 M15.14813694171608 0.7029632348567247 C28.53652781511874 0.44902453929942465, 41.62373880265714 0.4426482132152877, 66.10243822483898 0.8634607214480639 M67.05350898242176 0 C77.29824626605888 -0.963481780141592, 81.63776270708621 6.433947249005239, 82.09174196085513 14.342014554888015 M65.78271560034335 1.5326536931097507 C77.56585187718203 -1.1730272548273204, 80.06815415228337 4.259398361357551, 80.40215503776997 13.691650311462586 M79.87768505922139 15.60131579264999 C81.84837713406986 21.154161012657184, 79.99704721139378 25.76443649999836, 83.47982322088063 44.03904312476517 M81.12808437495113 15.62668538279832 C82.40820360049261 23.426586426389548, 82.1865726099874 31.379321408579415, 81.58532275109172 44.60686594434084 M81.86677192187489 44.43978881835939 C80.65787009558261 55.41524049018822, 76.27976823013206 59.336297754198334, 69.01340548357547 57.41705894842746 M80.2342634614426 45.62389529123904 C84.14349398816556 55.366159361911336, 78.88462517663767 57.18596252631398, 64.75759421194525 60.951166085712636 M65.23538326135457 60.50637012347581 C54.54666235472856 57.59982122443243, 45.57620698154982 60.78547693751379, 14.998238209635025 60.19431870803239 M67.74711163191677 60.146545531228206 C51.48852897232591 58.031747850968166, 37.173151192495794 58.61613843162231, 14.856457022950059 58.27465623803439 M14.81326293945313 59.25305175781252 C6.414866900692385 60.95476496592166, -0.601731363683939 56.140641057242966, -0.2602704204618931 44.926322702318444 M13.974785860627895 61.12597978487613 C6.536939403104286 60.91652889084073, 0.10468840468674889 52.32928007872156, 0.12511354554444543 43.99574579428883 M-1.713799711316824 45.61392384395005 C0.46819967346499536 34.984939050980145, -0.004330810734528567 22.574029056594224, 0.41536176577210426 16.741058524698026 M-0.027923377230763435 44.5504465121776 C-0.6773323507379143 34.56360442183113, -0.038192162043914124 24.6922427544583, -0.8086839634925127 14.829661192372447 M0 14.81326293945313 C-1.7983140386641026 6.520793958256643, 3.8444632055858783 1.7449467219412327, 13.933396276086574 -0.04370736703276634 M-1.6767851747572422 14.716092232614761 C-0.6489504886791109 5.448715283783775, 4.334767725753289 2.034439723007381, 16.50699467528612 -2.2753796057775615" stroke="#000000" stroke-width="1" fill="none"></path></g><g transform="translate(322.1372265239247 125.52438186662425) rotate(0 20.414605863974998 7.452951347165481)"><text x="20.414605863975" y="11.905902694330962" font-family="Helvetica, Segoe UI Emoji" font-size="12.961654516809524px" fill="#000000" text-anchor="middle" style="white-space: pre;" direction="ltr">Emitter</text></g><g transform="translate(403.9692629648439 102.33247103879648) rotate(0 40.93338596093747 29.626525878906264)"><path d="M14.815244253724819 -0.3599787913262844 L66.51727287134707 -0.6533176861703396 L73.23628238997043 2.761768940836191 L76.82353989443362 4.603956703096629 L79.78112058004916 6.544998530298475 L83.29469339212955 14.010553602129226 L82.05289272627414 48.821111325174584 L78.90045992693484 55.45726585760715 L73.90696029028476 58.45608890429141 L67.54806606134952 60.0178086794913 L14.39462929591537 59.38844454661014 L7.877768453210596 57.89209318533542 L3.560523089021445 54.805928591638825 L-0.09705955162644381 46.07791591063143 L0.18260556086897856 13.22231829538942 L5.296124871820212 2.1931657828390607 L7.884126242250208 -0.6124659739434717 L15.779775317758327 -1.4809868298470974" stroke="none" stroke-width="0" fill="#ced4da"></path><path d="M14.097999390214687 1.513214711099863 M16.425854090601213 1.3874570690095425 C33.43719821472037 -1.8465118045249769, 47.580260020724296 0.25019661241380475, 68.66498588434041 -0.3984674848616123 M15.250553516671067 0.4534528870135546 C35.226277068524716 -0.38281598519655324, 54.126955988420356 -0.2944485826429949, 66.3726804986465 -0.2717403154820204 M67.05350898242176 0 C78.26004886787315 -1.7900896035134792, 80.45152072271884 5.347119851658743, 83.51323465666354 15.215933922678238 M67.53741828760684 -1.2139294110238552 C74.84947690173914 -0.309466858394444, 79.7920503636691 2.653418161782127, 80.04218245948286 16.25532381366939 M81.69475017896474 15.151710923761135 C83.03798965201926 21.504583370047015, 83.71452609286857 30.722625341479386, 81.04064368120015 46.403483208268895 M81.3399331703651 15.779888810589915 C81.75740527386611 25.644452825924166, 81.39131741995757 37.3155983384508, 82.62747283129573 44.23338747210802 M81.86677192187489 44.43978881835939 C80.38272659143985 53.96315201496086, 78.51698053043266 59.81124556437137, 68.65473918280185 60.23605430498721 M82.44000832399905 43.13415575399996 C82.12606653774709 54.12570021183542, 78.88099186226655 61.202244518511016, 66.80781183446378 58.0060226781294 M67.65182124486745 60.384272273629925 C50.06541270167003 59.061340161324736, 32.176639809107364 57.849317499161955, 14.657699111849075 58.03152948245408 M67.70340241341472 58.25885921902957 C50.979177825944646 58.75695683510565, 36.79148087214156 59.53740950377249, 14.594587175175553 59.555234314873836 M14.81326293945313 59.25305175781252 C4.969671821842592 59.94311380758884, 1.985204752534628 54.13390704368553, 1.308423813432455 43.36568701639773 M14.917217429727321 61.240251783281586 C3.4985131886477285 59.44473085831853, 1.9418605254963035 55.66472367675356, 0.15229382980614892 45.015247390978054 M0.10230410471558571 42.76122754439713 C-1.6774778900469676 32.24672560876618, 1.7679947080288991 20.99241272953171, 1.6456310786306858 15.071059521287685 M0.7921941559761763 44.44389194436373 C-0.12444263149281032 35.98327455579938, -1.1490464155771303 26.299697648802418, 0.5338735263794661 15.42225480265916 M0 14.81326293945313 C-0.3779161609709263 6.54674808556835, 4.676142668972414 -0.25567614659667015, 16.105720575898893 0.22256887331604958 M-1.7432723678648472 13.312793735414749 C-1.864259256236255 5.079196532877784, 6.095142742681007 1.2968818409368397, 13.491972582228488 -1.0068335907533763" stroke="#000000" stroke-width="1" fill="none"></path></g><g transform="translate(424.65358421217525 124.34054397599925) rotate(0 20.414605863974998 7.452951347165481)"><text x="20.414605863975" y="11.905902694330962" font-family="Helvetica, Segoe UI Emoji" font-size="12.961654516809524px" fill="#000000" text-anchor="middle" style="white-space: pre;" direction="ltr">Emitter</text></g><g transform="translate(68.78041992503074 232.65858187864023) rotate(0 63.160742184344315 45.714111328125)"><path d="M24.647676166146994 -0.9577438794076443 L104.20962581822943 -0.5901292525231838 L115.33524201104711 1.2990727461874485 L121.83937916944097 7.247681025415659 L124.4702062387235 12.118854764848948 L126.78448591420721 24.404659394174814 L126.34399912545751 72.31520653143525 L119.48342261502813 86.86853778734803 L114.14957378099035 88.47903037443757 L105.31216583440374 91.54721415415406 L22.69565099105239 92.26325178518891 L12.548176821321249 90.26764619722962 L5.836383040994406 84.52624059095979 L0.014357861131429672 75.41951096430421 L-0.8873773254454136 19.331963542848825 L7.648877676576376 7.455099944025278 L12.753001864999533 0.8062388934195042 L22.506307419389486 1.0314813889563084" stroke="none" stroke-width="0" fill="#ced4da"></path><path d="M21.49518197402358 0.9951081313192844 M23.149790052324533 -1.4183442033827305 C41.570173383596156 -0.4144822688657416, 61.01082420144004 -1.6699505181867256, 103.69801585415672 -0.5147050060331821 M22.023027865216136 0.6441218871623278 C42.105248899607105 -0.4432973008646929, 59.69647071219632 -0.11692139916562672, 103.11383862274062 0.6661573071032763 M103.46442870462607 0 C118.05395159909796 -0.4296675883233547, 125.83732841203283 8.92683482542634, 126.48022673318457 21.509732250124216 M105.06363353917669 -0.7834314070641994 C118.24873739315491 -1.3246026651933787, 126.42623281909447 8.531468097679317, 125.1514164133213 21.30678213071078 M128.22469405869316 24.69200187548995 C124.80543750239953 36.326964782348796, 126.33152609778985 51.569406784666626, 124.68565027455162 69.22360890731215 M125.52176702993285 23.70139658637345 C125.79877868675966 31.73495694539656, 127.37519380831499 42.06624870395581, 126.44736249225508 68.83406967110932 M126.32148436868857 68.5711669921875 C125.41654071996282 85.27433646097779, 118.10658714959692 91.76921320334077, 104.61485717485021 91.76090884581208 M126.27618298719 69.82818067446351 C127.27789292170029 85.00646653007716, 117.3571526451252 90.01624784898013, 104.96800442172508 91.7316627426073 M102.06382231453728 90.75716667994857 C76.06134376216258 90.27669314353334, 48.28567566511015 92.61532584636079, 21.537606600672007 92.30248373374343 M103.12528372781645 90.5610470790416 C73.97981154271064 91.11102813360542, 44.00959990142806 91.03354203579276, 23.175458816811442 91.06680900044739 M22.8570556640625 91.42822265625 C8.031360682100058 91.595054987818, 1.1634771190583706 82.01321816816926, 0.402841504663229 70.13343859091401 M24.820064838975668 91.84410488978028 C7.305395166762173 91.11366411279887, 0.5445490704849361 85.33738547991962, -1.0910110486671327 69.77683678101748 M-1.658752914518118 66.90923028811812 C0.6846156761812153 50.623363841032415, -0.5247541024519023 36.94937102065569, -0.013546820729970932 20.93847220763564 M0.23177131824195385 68.40446984954178 C-0.29548652481623777 54.80076501697272, -0.41835881781169065 41.78556306831479, 0.7391920369118452 22.395869435742497 M0 22.8570556640625 C-0.23474282398819923 8.348161820322275, 8.093594010919333 0.23184776678681374, 23.016201194375753 -1.8861062489449978 M-0.4764494337141514 24.166440848261118 C-0.4263730717822909 6.564470551721752, 7.1323673950508235 1.061873177997768, 24.3891160832718 -0.11150434780865925" stroke="#000000" stroke-width="1" fill="none"></path></g><g transform="translate(101.94116210937489 266.87269320676523) rotate(0 30 11.5)"><text x="30" y="18" font-family="Helvetica, Segoe UI Emoji" font-size="20px" fill="#000000" text-anchor="middle" style="white-space: pre;" direction="ltr">Router</text></g><g transform="translate(332.41665039378074 233.09504428098398) rotate(0 63.160742184344315 45.714111328125)"><path d="M22.583526495844126 0.4735209308564663 L104.79328207711052 1.0811431966722012 L113.32763712147545 0.20344823226332664 L118.94846753815483 4.052327211946249 L125.54627625683617 11.094699081033468 L125.76547245720695 23.606076534837484 L125.95079605320763 72.00970595702529 L120.66519527176689 84.21645122393966 L115.27907149533104 90.46319931373 L103.13103441933464 90.15267735347152 L23.009745243936777 89.90693276748061 L14.67287302389741 91.47804075106978 L4.79189145937562 85.87310427054763 L-1.5289647541940212 73.69354658946395 L1.0862847603857517 17.974508699029684 L5.946111682802439 5.237814482301474 L14.166478995233774 2.7607924304902554 L22.760095361620188 -0.37075919285416603" stroke="none" stroke-width="0" fill="#ced4da"></path><path d="M21.940057400614023 -0.4231749214231968 M21.847653564065695 -0.8487689457833767 C51.83499903123062 2.2355243514794454, 76.95777769541704 -0.8384007860403909, 104.31738696286749 1.148083571344614 M22.652897180989385 -0.9341364223510027 C43.88225966895298 -0.9224308818930923, 65.05064994317146 -1.3516119212264357, 103.2111787036277 -0.6307981926947832 M103.46442870462607 0 C118.52497939804863 0.5532155595719814, 126.58976046780418 9.574598964303732, 127.80236522892784 22.457060273736715 M105.286381289757 -0.5267631448805332 C120.75833856856744 -1.3662643266841767, 125.57617099678438 7.197243367321789, 127.03015286123674 20.793859456665814 M126.77875921914648 23.971362117677927 C126.73866529567884 38.357495336533475, 127.88709337814497 52.02244096383629, 124.85893116185736 69.66532004252076 M125.77255819591056 23.64176949672401 C127.5673507641331 35.94684053917604, 125.73148186907923 50.11796802388881, 125.98168735059272 68.22930648736656 M126.32148436868857 68.5711669921875 C124.90707640389275 84.9223354421556, 118.66540758351158 90.59037869796157, 103.56757228115868 90.27180546149611 M126.75577382782768 68.15764909610152 C128.30511554276865 82.06960812080652, 119.66487874185961 92.66266331542283, 102.40371244347017 92.1935803996399 M104.50750587174963 89.8061568774283 C83.05063865440579 91.06147996210258, 60.28047416533344 90.6710417630593, 24.18395620211959 90.24409520998597 M102.6143215731002 91.90687677077949 C74.42892967865367 90.8580755291914, 47.324899554837046 90.94982191905727, 23.704034687951207 91.95268478803337 M22.8570556640625 91.42822265625 C7.982108596712351 90.14764123782516, 1.0543512143194675 82.39667051658034, 0.6231266297399998 67.51671117171645 M22.44837499037385 92.00342303141952 C8.538494543544948 90.05368079412729, -0.11022652555257073 85.26458915341645, 1.721906278841197 69.30915293563157 M-0.44633108749985695 67.72324228659272 C2.1616132101624546 52.22486097394517, 1.8733805260270173 33.86808503849488, -0.316766444593668 24.224008683115244 M0.20040410943329334 68.27793344669044 C-0.6851307494582443 54.31482546673783, -0.9602620346488265 39.30590869467096, 0.5370585937052965 23.212432412430644 M0 22.8570556640625 C1.177468542009592 9.203009899705648, 8.46523392572999 -0.33782440796494484, 23.63909662142396 1.899052795022726 M0.8780031241476536 20.945861395448446 C-2.1170127229765057 6.2978677557781335, 8.748804400674999 -1.7074283374473451, 23.70973435472697 -1.1469229353591799" stroke="#000000" stroke-width="1" fill="none"></path></g><g transform="translate(365.5773925781249 267.309155609109) rotate(0 30 11.5)"><text x="30" y="18" font-family="Helvetica, Segoe UI Emoji" font-size="20px" fill="#000000" text-anchor="middle" style="white-space: pre;" direction="ltr">Router</text></g><g transform="translate(333.61287842112426 375.78321566770273) rotate(0 63.160742184344315 45.714111328125)"><path d="M24.171355303376913 -1.4421106539666653 L103.34105107972692 0.43866849318146706 L112.43122492024969 1.4900828637182713 L122.08876249978613 5.230420116335154 L125.26886401364874 12.128308180719614 L127.11032340715002 20.906281236559153 L124.1319528598554 74.62991965189576 L121.0004603643186 83.79773378744721 L115.3696945686109 88.92956960573792 L105.29139993379187 93.15642571821809 L20.94705992564559 90.02393353357911 L14.416853364557028 89.1530647315085 L3.8744512163102627 84.11513126268983 L-0.6440270580351353 74.52107787504792 L-1.1510288156569004 16.61087954416871 L6.203177388757467 6.056506637483835 L13.255501803010702 0.9807466305792332 L22.169287856668234 0.7601692713797092" stroke="none" stroke-width="0" fill="#ced4da"></path><path d="M20.987954434007406 0.6145240105688572 M24.10718047991395 0.7749859653413296 C47.13139783996965 -0.7826793965966092, 67.18430553816012 1.118670743974985, 102.01069574097465 -1.1438884176313877 M23.43306460790336 0.5277281422168016 C44.433821231034685 0.5137291196362508, 66.375890644083 -0.006401097439097114, 102.55433000104796 0.6254795808345079 M103.46442870462607 0 C119.6905877370603 1.6333479918539524, 125.66239915082525 8.916467074304819, 127.37117729375433 24.58424151316285 M104.60191915223669 -0.19860338792204857 C116.80224575234871 -1.522596021182835, 127.88894585205536 9.752282152883708, 127.71972522570114 21.541464517824352 M126.13059370259117 24.373712476342916 C125.14602704015991 34.83125600782819, 126.9004901167514 48.57730890820994, 128.00714211205315 68.95609694346786 M125.94930941837202 23.60002893395722 C126.15631076551134 37.8780449684366, 126.0453269765442 54.47362882823336, 125.47872377412688 67.67450690455735 M126.32148436868857 68.5711669921875 C128.17388150880407 84.8715546168387, 119.42418871114324 89.71419060602784, 102.10624871442388 90.72191560640931 M128.2803880948789 66.81293392553926 C127.23139327002983 85.22178074549883, 119.38964526487808 91.66749594043941, 103.84581450058441 92.10197936128824 M104.69411008099388 93.37794130668044 C80.39172234542939 92.35493904456038, 61.371442916749665 91.34404248103041, 23.659414295107126 90.08170181140304 M103.24098605888258 91.62826997227967 C87.45494961802896 91.84720518267402, 69.87804823271732 91.58654304421195, 23.83553179912269 91.44973814673722 M22.8570556640625 91.42822265625 C6.641339715570211 89.8929796256125, 0.2836680971086025 84.75191963091493, 1.1484826169908047 66.97557175531983 M24.678373035043478 92.23903727903962 C6.40998613703996 90.42439039181917, 0.41276365984231234 85.72382834982128, -1.3424448205158113 67.61723587345332 M-0.9344481192529202 69.8260025344789 C-0.18142670740219274 49.71514741556007, -0.27326184858413854 30.600321196787718, -0.7061693631112576 23.355728920549154 M0.15941288881003857 67.59072274155915 C0.6444619478648974 56.22033045074727, -0.8330455837780164 42.981714969627774, -0.9810564834624529 22.27954244799912 M0 22.8570556640625 C-1.1339419521391392 7.1070468463003635, 6.232682999223471 0.196402195841074, 24.576150473207235 -1.5744677744805813 M0.5303954444825649 21.57555628195405 C-2.2274053467437622 8.935525886528193, 7.744433836825192 0.32108406852930793, 23.711880843527616 1.2662379605695606" stroke="#000000" stroke-width="1" fill="none"></path></g><g transform="translate(357.27362060546864 409.99732699582773) rotate(0 39.5 11.5)"><text x="39.5" y="18" font-family="Helvetica, Segoe UI Emoji" font-size="20px" fill="#000000" text-anchor="middle" style="white-space: pre;" direction="ltr">Collector</text></g><g transform="translate(69.95607910471813 373.32276644895273) rotate(0 63.16074218434426 45.714111328125)"><path d="M21.110912088304758 -0.09654540196061134 L103.12133066395592 -1.685521189123392 L111.67107038239311 0.07038598880171776 L119.90091340283226 7.5666610561311245 L125.95526890496086 13.578816708177328 L124.60745231846641 24.81595939025283 L124.20610980728935 74.25992923602462 L121.19309584835838 86.50518387183547 L114.6927180741198 90.5972040258348 L103.67249243000816 90.8723105750978 L24.424986366182566 93.01114469394088 L14.086775187402964 91.94937532767653 L4.58323884382844 86.00269919261336 L2.1475182808935642 73.20613330230117 L1.1595001257956028 16.153412397950888 L3.8065623082220554 7.049954112619162 L11.958574060350657 0.9816806875169277 L23.257150296121836 0.9679841361939907" stroke="none" stroke-width="0" fill="#ced4da"></path><path d="M24.419293884187937 -1.1988763250410557 M24.005538281053305 -1.5955952368676662 C50.256855663251855 -1.5525861023160412, 79.89568143778439 0.9253724576738879, 105.28574607560705 0.8108146227896214 M22.420606853440404 0.17946246080100536 C43.16688896966189 1.392024769625052, 62.57284096198201 1.1054504655212007, 102.99720464499961 0.6274177711457014 M103.46442870462607 0 C118.7770926211245 -1.6893933452665806, 125.61531500557732 8.117691811174154, 126.48794631699394 22.14176231250167 M102.9211925719149 1.4486378990113735 C116.44744403755587 2.2438292132690547, 126.60143807923716 6.4645804451778535, 125.40151102340143 23.223705308325588 M128.0405791778333 21.28258788958192 C124.73906116350761 33.113770051068286, 124.48666756018272 44.59083005068942, 126.85187981317114 67.28966761007905 M126.89387886079322 22.911584047600627 C126.71275980325512 38.98730181042788, 126.2920539483624 54.508238613172125, 125.78795026095878 68.34625276736915 M126.32148436868857 68.5711669921875 C126.6483940337069 84.06564420089126, 117.322500512398 91.12314897403121, 101.79533629158806 90.66835289821029 M128.10976998547386 66.90617483481765 C124.83419865763109 83.2406456457451, 117.41724505221765 92.736830608733, 104.80253604447763 90.00762463081628 M103.90499935338568 90.21400893107057 C77.81795997456226 91.57664340691427, 50.02907351932282 90.77275687413076, 21.68635767325759 92.66550851240754 M102.5226028397895 90.55190113000572 C74.23242817884052 92.33247817742935, 46.68956987836518 91.69402856814972, 22.112321676686406 92.37391802482307 M22.8570556640625 91.42822265625 C7.40745485201478 91.03673094138503, -1.6965682469308376 84.7633565030992, -0.6777272187173367 70.00059228762984 M24.74763024225831 91.35368674620986 C6.203478155843914 90.27763007748872, 0.1456306142732502 84.74458568561822, -2.2113505797460675 67.46733206976205 M0.33732419833540916 67.54754484072328 C0.7522016407156343 59.725236318894304, 0.6300418020391817 48.8022236039501, -1.6012988723814487 22.559186939150095 M-0.5303794126957655 68.62653675489128 C0.4618231188554773 50.675052829740025, 0.11137635820102781 32.936610210130766, -0.23021822981536388 21.992884246632457 M0 22.8570556640625 C-0.2370823584496975 7.416493829339743, 7.548001293092966 -0.07423442974686623, 22.020074132829905 -1.935494128614664 M0.6298416890203953 21.94522636756301 C-1.5467682616785168 6.1682590709999205, 8.407981471531093 0.628958957083523, 24.108288638107478 0.26689012516289967" stroke="#000000" stroke-width="1" fill="none"></path></g><g transform="translate(93.6168212890625 407.53687777707773) rotate(0 39.5 11.5)"><text x="39.5" y="18" font-family="Helvetica, Segoe UI Emoji" font-size="20px" fill="#000000" text-anchor="middle" style="white-space: pre;" direction="ltr">Collector</text></g><g transform="translate(600.1960693390931 125.32172885129648) rotate(0 63.16074218434426 45.714111328125)"><path d="M21.86031985655427 -1.4341642297804356 L102.92289297322105 -0.4712906517088413 L111.79334192017387 2.2397862039506435 L119.01869885662865 6.188301261514425 L123.14962296227287 14.243517216295004 L126.36567966679405 24.20829051360488 L127.42176513413261 73.15821128711104 L120.16598384121727 86.78148716315627 L112.12889342049431 88.21734886988997 L101.6842598173983 92.89586728438735 L23.530900482088327 90.5914335809648 L12.21164071932435 89.33346670493484 L4.058110479265451 85.53141337260604 L0.7097007073462009 72.31404059752822 L-1.0474519692361355 16.368833120912313 L6.380280379205942 6.994958575814962 L13.269016984850168 1.3720892034471035 L24.666622761636972 1.6133670173585415" stroke="none" stroke-width="0" fill="#ced4da"></path><path d="M21.6963505782187 -0.3951987661421299 M22.21076613292098 -1.0419577322900295 C44.11958539905653 -2.374664732090363, 67.69423337002607 -0.0925985060848088, 102.71195171067785 1.183025125414133 M23.738456489518285 0.09924557618796825 C55.0006317965596 -0.869890921938961, 85.33800432344955 -0.9825913246756248, 102.86350093635093 0.6156975906342268 M103.46442870462607 0 C120.11497084835838 -0.9694865383207798, 128.23679308632683 9.48612767085433, 126.9982793782122 24.428960379213095 M102.68857519368004 0.7751731239259243 C119.05921566879671 -1.727759159915149, 128.25907610452097 9.90969892013818, 124.46062915122431 21.714853446371855 M127.08241591641973 21.783796194940805 C126.82337062841606 33.398409499636045, 124.32106857782554 43.77120532996605, 126.23774120996069 70.20515203848481 M127.12984983476173 23.466468481346965 C127.08856251359897 32.975144802667046, 125.83016439796405 42.19320032015412, 126.21396945270072 68.71865734271705 M126.32148436868857 68.5711669921875 C125.52368681172203 85.32333176955581, 119.15912751892876 90.94538122043014, 102.47784952858757 92.26481610164046 M127.08253590802025 69.29002207145095 C125.28782514727037 84.24492702353746, 120.2836324671499 92.72373680341988, 103.29598949944895 93.49934955108911 M103.33422622869085 90.4245067872107 C85.24738220874924 91.72112638182772, 65.11201142489162 92.07681626505983, 21.70765608176589 92.76098561659455 M102.62005452664863 90.64227750711143 C71.66579790287877 92.12625148347216, 40.18688498333253 92.01519140055971, 23.478923143818974 91.59333798103034 M22.8570556640625 91.42822265625 C7.831880930811167 90.50798052176833, -1.008073564618826 83.09016638621688, 0.5636849440634251 70.20710187777877 M22.187498215585947 91.22062724456191 C7.387436066381634 90.70992964375765, 2.0779939813539388 83.05667803753167, -0.9638352351263164 67.68053220976144 M-1.545277539640665 68.47905099764466 C1.0863230979876106 54.60933728440955, -0.07871393795446696 37.3762240655592, 0.48121779784560204 23.721375469118357 M0.9969123620539904 68.52779570035636 C0.5597246176903127 52.10426589882832, -0.7631800287063243 34.84543755909226, -0.9171751122921705 21.897210208699107 M0 22.8570556640625 C-1.0018042288720608 9.527086671441793, 7.975082401186228 -0.44206565991044044, 21.457103971391916 -1.0681569017469883 M1.048530463129282 24.47104137763381 C0.09349763225764018 8.243225263245403, 8.701047353260218 2.2121359037235377, 23.667092434875666 1.2849639223888514" stroke="#000000" stroke-width="1" fill="none"></path></g><g transform="translate(633.3568115234375 159.53584017942148) rotate(0 30 11.5)"><text x="30" y="18" font-family="Helvetica, Segoe UI Emoji" font-size="20px" fill="#000000" text-anchor="middle" style="white-space: pre;" direction="ltr">Router</text></g><g transform="translate(563.2662533909463 262.50245394895273) rotate(0 39.47660230685517 28.5721435546875)"><path d="M14.903438385576015 0.9035459794104099 L63.73510495626414 -1.917800422757864 L72.77308229410136 1.8794444836676125 L73.86068502866709 3.301319364458324 L79.30467585527384 6.089889649301771 L78.34541121923411 15.491127017885452 L79.95150093042338 46.014435652643456 L75.59651009046519 55.31412864103915 L72.080555238361 56.264464978128686 L62.95870820486033 57.77889967337253 L15.669148501008754 55.640815142542145 L9.94060438498855 57.494620565325036 L2.7034428678452977 54.72075188532473 L-1.5028892196714878 45.19457245245577 L0.8215070329606534 10.857343558222059 L3.5653864704072484 6.933046106249096 L6.488636787980797 2.834916714578868 L15.133037503808742 -0.11741780862212181" stroke="none" stroke-width="0" fill="#ced4da"></path><path d="M14.41103177890182 -0.05576479062438011 M13.700182083994155 -1.4813876785337925 C29.783626492740623 0.4099063171860979, 44.848153817746855 1.9656525148865984, 65.52955363743985 1.914488609880209 M14.358043221756821 0.133593263104558 C25.747235029457478 -0.44369156822074485, 35.677715213012625 -0.2974285052667959, 64.76156825811648 0.4922432918101549 M64.66713283636653 0 C75.1292430540272 1.2084739245474339, 77.19801644288981 4.073830250650646, 77.10508254968607 15.585919264703994 M64.8702406068989 0.21519136801362038 C75.93484935012692 -2.1700070457533, 77.14309905615681 6.156655262224378, 78.38110880699986 12.44938605856151 M79.39668212884152 13.389204677194362 C78.14896860416927 21.88668184179263, 77.68055417831935 30.69293204716238, 78.12803553097928 43.12142282351853 M79.7579385140636 13.596175732091075 C79.08214570574363 24.268004947324137, 79.64857967190345 35.01484827693708, 79.12038738519931 42.9377778787166 M78.95320461371028 42.858215332031264 C80.58960286581004 50.962290290743134, 74.67966989480936 57.006792429834626, 65.79451493226969 57.00543845072391 M77.94752851926768 41.867460492998376 C77.0877540394389 50.217592529766286, 72.3740497812354 55.21829010080548, 63.83127263632649 55.93657097648831 M65.92051039689267 58.932511266320965 C47.17221593944154 55.33594268572756, 32.00217236700019 57.5370593668265, 13.450818303972488 58.62387400493028 M63.77176023514056 56.61345333047213 C46.80618262692005 58.235602032897695, 27.727840660179034 58.370337080714926, 15.109490362927323 56.382831813767574 M14.286071777343755 57.14428710937502 C5.874086555093529 57.519466642290375, -1.7087666429579258 52.50764096155765, -0.41714853420853615 42.68132055178286 M14.396791871637111 57.71395874395969 C3.66956547368318 57.482345883362015, 2.2350791262462737 53.48676621746274, -1.5876060081645846 43.52859521936627 M-0.9149786196649075 43.92526548728348 C-0.5425239116062925 32.236077844504315, -1.2742287427296446 21.71943277374663, 1.9171285666525364 15.999112661927944 M0.7651089709252119 43.4333508629352 C0.1999341909022746 36.56619764090614, 0.4755280081363139 31.76014251763196, 0.18472489528357983 15.141492011025553 M0 14.286071777343755 C1.0457195602357388 6.690916065126659, 6.314482267946007 -1.2833653651177883, 14.266271885484462 0.2394200600683689 M-1.3295396007597446 16.08000350371004 C0.10165870059281579 3.7291602415964027, 6.799124638922514 -1.3114759581163524, 12.996189718134707 1.7031199200078841" stroke="#000000" stroke-width="1" fill="none"></path></g><g transform="translate(583.9923149624012 283.88689022173685) rotate(0 18.750540735400136 7.187707281903386)"><text x="18.750540735400158" y="11.375414563806785" font-family="Helvetica, Segoe UI Emoji" font-size="12.500360490266774px" fill="#000000" text-anchor="middle" style="white-space: pre;" direction="ltr">Router</text></g><g transform="translate(679.824239978301 261.71827426145273) rotate(0 39.47660230685517 28.5721435546875)"><path d="M14.869010809808975 -0.9499638713896275 L64.96109698765957 1.9435470663011074 L71.87772665971005 2.1676167808473115 L76.22564218991482 2.148449953645469 L77.14534650796139 9.102965530008081 L78.53124879353726 14.056676205247646 L77.57632409089291 45.85321467742325 L77.29881523602688 55.285810049623265 L69.11382900231564 57.422324832528844 L66.0117399548837 58.674505051225445 L15.436342839151626 57.87871163710954 L7.44229364767671 57.53701978549363 L5.356199625879527 53.942218955606236 L1.934060338884592 46.18671351298691 L0.4626399315893651 11.983493264764551 L3.937870983034373 7.132955130189659 L4.297131422907116 0.6794392429292211 L16.08000350371004 -1.1216365732252598" stroke="none" stroke-width="0" fill="#ced4da"></path><path d="M15.767045620828872 0.08839887008070946 M13.367833312600856 -0.28893160447478294 C28.12044230416989 -0.47060378218840515, 40.36004699276041 1.8297386584167583, 64.86735824548686 1.0807236470282078 M14.731094660237437 -0.30041983909904957 C28.85484271083967 -0.9643314187316678, 43.17933729769678 0.6205256278724887, 63.92524681852245 0.4200326483696699 M64.66713283636653 0 C75.88651989453518 -0.2811579145491123, 79.17951141350949 4.81755703315139, 77.74514351838314 15.968939241021877 M65.30575870030606 -0.890921775251627 C76.0794650178128 0.3728878187015652, 78.82110115696722 3.5960634814575334, 77.01543946673209 12.824661992676562 M79.9992016931721 13.611094478517776 C77.35478087456791 20.611164288869244, 79.25003512890903 29.663484007667975, 77.06985215150797 43.55151236429812 M79.80858676002407 14.437656490132218 C77.86481772410252 20.887412211023943, 78.36061386811116 25.379005624176408, 78.63771103189373 43.667527465149774 M78.95320461371028 42.858215332031264 C79.28125117772305 51.51795464381578, 73.15365706437314 58.841454442590496, 65.27908836358273 56.84954136237504 M78.91754625790799 41.59372239932419 C80.25994560529524 50.27666798103603, 72.0051580231362 55.044234894402344, 66.57802492787177 58.61643615830692 M63.702740826243996 56.97756648436191 C52.893034628082894 57.135547137946844, 42.12159365819328 56.46312651702857, 13.33035665377975 55.81955755129459 M65.27333597705746 57.176091400906465 C43.79130073013914 56.53463980511583, 24.152346003850717 55.718549280919206, 14.46716869063676 56.87338867597284 M14.286071777343755 57.14428710937502 C6.330947402864696 58.64944940432908, -0.3108602724969387 50.84604948386552, -1.0765575133264065 44.35048955306412 M15.714572194963699 56.28794604167344 C4.028120474331082 55.49078215826305, -1.7374951260164377 53.55503524411472, -0.5056308763101696 43.15018496382983 M1.8562583290040493 42.30401468649508 C0.3396903195133905 35.56695227928252, -1.0454661927470466 29.744932749267228, -0.5549485124647617 14.366426590830093 M0.005591334775090218 42.75753626041116 C0.34367658350831565 36.278918958989365, 1.0720853373802335 28.430274115453322, 0.9778659362345934 14.852679757401352 M0 14.286071777343755 C-0.5595691166818142 5.8011925779283064, 6.4720317162573355 -0.2139459289610386, 15.753682497888809 -0.9629085697233677 M0.6160631217062473 16.26901965960861 C1.6859310789033768 3.141133670695128, 4.168520663492384 -0.1959739459678529, 12.994880305044358 -1.7035593641921878" stroke="#000000" stroke-width="1" fill="none"></path></g><g transform="translate(700.5503015497559 283.35869197954935) rotate(0 18.750540735400136 7.187707281903386)"><text x="18.750540735400158" y="11.375414563806785" font-family="Helvetica, Segoe UI Emoji" font-size="12.500360490266774px" fill="#000000" text-anchor="middle" style="white-space: pre;" direction="ltr">Router</text></g><g transform="translate(606.5969177277651 361.465161468484) rotate(0 63.160742184344315 45.714111328125)"><path d="M21.135599192231894 -0.42535173520445824 L103.31081865022253 1.089063886553049 L111.66725835988592 0.06024754419922829 L122.50805399606298 4.850236896425486 L125.44465575406622 13.771409872919321 L125.27210757920813 24.390050653368235 L125.16547165105413 75.61548960581422 L119.44770596215795 86.78998709097505 L114.42890916059088 88.27713907137513 L103.81707570741247 90.05169415846467 L24.44993906840682 89.50303376093507 L14.063928063958883 89.09587955847383 L7.488963659852743 84.24529350176454 L-1.5825846828520298 73.405970338732 L-0.5069143213331699 16.661635044962168 L4.221956189721823 6.528007987886667 L13.097187098115683 2.97162664309144 L23.93837183341384 0.21281075850129128" stroke="none" stroke-width="0" fill="#ced4da"></path><path d="M23.445179279893637 1.3150597847998142 M23.036903265863657 1.423586543649435 C45.966054360065115 1.4579511702646228, 67.08502860490134 -1.305096882523158, 102.27394513825249 -1.8322324194014072 M23.482599882408977 -0.35503619723021984 C48.331903737585826 0.14689933322958681, 73.28414147642967 0.8845053222089264, 104.01595939176451 0.937798859551549 M103.46442870462607 0 C118.91493294427465 0.0008454360067844391, 127.13152585218023 9.131468180567026, 127.29898319432806 23.70286810770631 M102.9203195352323 -0.6937158070504665 C118.4759837074421 1.6822342915460466, 125.65297158791046 6.838577614538371, 128.2124039156578 21.634507416002453 M125.25190584400963 21.232090886682272 C127.69330465899397 37.45486150890952, 126.45933389769483 56.820633687533245, 125.00690273979973 68.40135889872909 M126.07150704639326 22.201731147244573 C126.79429628484857 35.66203530391272, 126.89652355545175 46.145473692148244, 127.06867958085905 68.43125367350876 M126.32148436868857 68.5711669921875 C125.79159829804968 85.67868829146028, 120.57379636952948 90.4254685677588, 103.95281682202886 90.41103780642152 M126.37887880990576 67.05823898687959 C124.78446166945915 83.58648959826678, 118.25067722631913 91.74130666088313, 105.13452285362702 93.54288908075542 M104.58904282788109 89.67656629905105 C74.49647449712467 93.92320999976255, 43.222147285753 92.8221339928732, 22.10271740332246 90.76603847369552 M102.61358041541945 92.1304543633014 C79.88854039854394 90.7431593112092, 57.346756530960405 91.73437400380182, 23.669048396870494 91.12942803092301 M22.8570556640625 91.42822265625 C8.132896836847067 92.84678078070283, -0.780774537473917 83.04150569811463, 1.7692816816270351 69.56722081080079 M21.287422832101583 91.6817910708487 C9.019924043305219 89.93706372212618, 1.06709090936929 82.55449026655405, 0.0010822581127287734 70.21284835170954 M1.0661364831030369 68.04534285888076 C2.0286844838321256 50.22269987149616, -0.563303245240445 34.87557797175804, 0.6377074755728245 21.634609039872885 M-0.4148616511374712 68.78440493531525 C-0.97174540890353 56.20745068719202, 0.7385674940238687 44.655339655011176, 0.8362552803009748 23.735691072419286 M0 22.8570556640625 C0.9619242511689663 8.664546731859446, 8.309658821672201 1.896327618509531, 24.076649244874716 -0.9982606135308743 M1.6304730735719204 23.422790054231882 C-0.04555887114256629 7.2467496318742635, 5.425845436938108 -2.2595668809488414, 23.50651571024209 1.0858891351148485" stroke="#000000" stroke-width="1" fill="none"></path></g><g transform="translate(639.7576599121094 395.679272796609) rotate(0 30 11.5)"><text x="30" y="18" font-family="Helvetica, Segoe UI Emoji" font-size="20px" fill="#000000" text-anchor="middle" style="white-space: pre;" direction="ltr">Router</text></g><g><g transform="translate(128.97415161132812 185.94489779660898) rotate(0 0.8313446044921875 22.210113525390625)"><path d="M0 0 C0.2771148681640625 7.403371175130208, 1.3855743408203125 37.01685587565104, 1.662689208984375 44.42022705078125 M0 0 C0.2771148681640625 7.403371175130208, 1.3855743408203125 37.01685587565104, 1.662689208984375 44.42022705078125" stroke="#000000" stroke-width="1" fill="none"></path></g><g transform="translate(128.97415161132812 185.94489779660898) rotate(0 0.8313446044921875 22.210113525390625)"><path d="M-6.714825392420588 23.83388386493582 C-4.216802619060688 29.9723576898361, -1.71877984570079 36.110831514736375, 1.662689208984375 44.42022705078125 M-6.714825392420588 23.83388386493582 C-4.695166497554199 28.796858339619757, -2.6755076026878095 33.75983281430369, 1.662689208984375 44.42022705078125" stroke="#000000" stroke-width="1" fill="none"></path></g><g transform="translate(128.97415161132812 185.94489779660898) rotate(0 0.8313446044921875 22.210113525390625)"><path d="M8.477787030046361 23.26521066337294 C6.4456485773323315 29.57325251359965, 4.413510124618303 35.881294363826356, 1.662689208984375 44.42022705078125 M8.477787030046361 23.26521066337294 C6.8347970039371795 28.365281394459224, 5.191806977827998 33.46535212554551, 1.662689208984375 44.42022705078125" stroke="#000000" stroke-width="1" fill="none"></path></g></g><g><g transform="translate(131.03192138671875 329.41273226926523) rotate(0 0.357513427734375 20.981170654296875)"><path d="M0 0 C0.119171142578125 6.993723551432292, 0.595855712890625 34.96861775716146, 0.71502685546875 41.96234130859375 M0 0 C0.119171142578125 6.993723551432292, 0.595855712890625 34.96861775716146, 0.71502685546875 41.96234130859375" stroke="#000000" stroke-width="1" fill="none"></path></g><g transform="translate(131.03192138671875 329.41273226926523) rotate(0 0.357513427734375 20.981170654296875)"><path d="M-6.796908868728051 22.36876686309569 C-4.839628088518141 27.473992478146585, -2.8823473083082307 32.57921809319748, 0.71502685546875 41.96234130859375 M-6.796908868728051 22.36876686309569 C-4.024788753604789 29.599358795954366, -1.252668638481528 36.82995072881304, 0.71502685546875 41.96234130859375" stroke="#000000" stroke-width="1" fill="none"></path></g><g transform="translate(131.03192138671875 329.41273226926523) rotate(0 0.357513427734375 20.981170654296875)"><path d="M7.555057119917813 22.124213275506566 C5.772845415212135 27.293158822981503, 3.990633710506458 32.462104370456444, 0.71502685546875 41.96234130859375 M7.555057119917813 22.124213275506566 C5.030889424625327 29.44505250869792, 2.506721729332842 36.76589174188927, 0.71502685546875 41.96234130859375" stroke="#000000" stroke-width="1" fill="none"></path></g></g><g><g transform="translate(345.98345947265625 167.13990512082773) rotate(0 0.627349853515625 31.221649169921875)"><path d="M0 0 C0.20911661783854166 10.407216389973959, 1.0455830891927083 52.03608194986979, 1.25469970703125 62.44329833984375 M0 0 C0.20911661783854166 10.407216389973959, 1.0455830891927083 52.03608194986979, 1.25469970703125 62.44329833984375" stroke="#000000" stroke-width="1" fill="none"></path></g><g transform="translate(345.98345947265625 167.13990512082773) rotate(0 0.627349853515625 31.221649169921875)"><path d="M-9.57016885084983 34.46433801776249 C-7.3898331168806255 40.099836191560314, -5.20949738291142 45.73533436535814, 1.25469970703125 62.44329833984375 M-9.57016885084983 34.46433801776249 C-7.289082576588738 40.360245392298616, -5.007996302327646 46.25615276683474, 1.25469970703125 62.44329833984375" stroke="#000000" stroke-width="1" fill="none"></path></g><g transform="translate(345.98345947265625 167.13990512082773) rotate(0 0.627349853515625 31.221649169921875)"><path d="M10.94689832771824 34.052079875375675 C8.994704000330726 39.770614730372856, 7.042509672943215 45.48914958537004, 1.25469970703125 62.44329833984375 M10.94689832771824 34.052079875375675 C8.904495584179609 40.03486095050434, 6.862092840640978 46.017642025632995, 1.25469970703125 62.44329833984375" stroke="#000000" stroke-width="1" fill="none"></path></g></g><g><g transform="translate(446.7286376953125 164.89021029660898) rotate(0 0.239990234375 32.026763916015625)"><path d="M0 0 C0.07999674479166667 10.675587972005209, 0.3999837239583333 53.37793986002604, 0.47998046875 64.05352783203125 M0 0 C0.07999674479166667 10.675587972005209, 0.3999837239583333 53.37793986002604, 0.47998046875 64.05352783203125" stroke="#000000" stroke-width="1" fill="none"></path></g><g transform="translate(446.7286376953125 164.89021029660898) rotate(0 0.239990234375 32.026763916015625)"><path d="M-9.991575395178176 35.94042558790615 C-7.341060370342219 43.05629269123559, -4.690545345506262 50.17215979456503, 0.47998046875 64.05352783203125 M-9.991575395178176 35.94042558790615 C-7.574116276944819 42.43060491226037, -5.156657158711464 48.920784236614594, 0.47998046875 64.05352783203125" stroke="#000000" stroke-width="1" fill="none"></path></g><g transform="translate(446.7286376953125 164.89021029660898) rotate(0 0.239990234375 32.026763916015625)"><path d="M10.52905708075233 35.78665571561009 C7.985478180735063 42.94144438534131, 5.441899280717797 50.09623305507253, 0.47998046875 64.05352783203125 M10.52905708075233 35.78665571561009 C8.209131350403648 42.31233429000147, 5.889205620054966 48.83801286439285, 0.47998046875 64.05352783203125" stroke="#000000" stroke-width="1" fill="none"></path></g></g><g><g transform="translate(193.08648681640625 182.53590121457773) rotate(0 67.05203247070312 30.746612548828125)"><path d="M0 0 C22.350677490234375 10.248870849609375, 111.75338745117188 51.244354248046875, 134.10406494140625 61.49322509765625 M0 0 C22.350677490234375 10.248870849609375, 111.75338745117188 51.244354248046875, 134.10406494140625 61.49322509765625" stroke="#000000" stroke-width="1" fill="none"></path></g><g transform="translate(193.08648681640625 182.53590121457773) rotate(0 67.05203247070312 30.746612548828125)"><path d="M104.20212119729203 59.069640908107914 C114.52164479002009 59.90604921778276, 124.84116838274815 60.742457527457596, 134.10406494140625 61.49322509765625 M104.20212119729203 59.069640908107914 C112.21948915713392 59.71945706706878, 120.23685711697581 60.36927322602965, 134.10406494140625 61.49322509765625" stroke="#000000" stroke-width="1" fill="none"></path></g><g transform="translate(193.08648681640625 182.53590121457773) rotate(0 67.05203247070312 30.746612548828125)"><path d="M112.75569698584513 40.41605295256119 C120.1232777915918 47.69004079363966, 127.49085859733847 54.96402863471813, 134.10406494140625 61.49322509765625 M112.75569698584513 40.41605295256119 C118.47966338436801 46.0673057970663, 124.20362978289089 51.718558641571406, 134.10406494140625 61.49322509765625" stroke="#000000" stroke-width="1" fill="none"></path></g></g><g><g transform="translate(393.22930908203125 327.97620883176523) rotate(0 0.926910400390625 22.087127685546875)"><path d="M0 0 C0.3089701334635417 7.362375895182292, 1.5448506673177083 36.81187947591146, 1.85382080078125 44.17425537109375 M0 0 C0.3089701334635417 7.362375895182292, 1.5448506673177083 36.81187947591146, 1.85382080078125 44.17425537109375" stroke="#000000" stroke-width="1" fill="none"></path></g><g transform="translate(393.22930908203125 327.97620883176523) rotate(0 0.926910400390625 22.087127685546875)"><path d="M-6.571432639258619 23.736166498620864 C-3.7519307090376683 30.57575078365953, -0.9324287788167176 37.4153350686982, 1.85382080078125 44.17425537109375 M-6.571432639258619 23.736166498620864 C-3.2537892765651213 31.784148719744252, 0.06385408612837651 39.832130940867636, 1.85382080078125 44.17425537109375" stroke="#000000" stroke-width="1" fill="none"></path></g><g transform="translate(393.22930908203125 327.97620883176523) rotate(0 0.926910400390625 22.087127685546875)"><path d="M8.537052514067556 23.102122442637555 C6.300516266246927 30.15388888366862, 4.063980018426299 37.20565532469969, 1.85382080078125 44.17425537109375 M8.537052514067556 23.102122442637555 C5.905371521593805 31.399774548347622, 3.2736905291200538 39.697426654057686, 1.85382080078125 44.17425537109375" stroke="#000000" stroke-width="1" fill="none"></path></g></g><g><g transform="translate(330.5731201171875 322.06019320676523) rotate(0 -64.9664306640625 29.470550537109375)"><path d="M0 0 C-21.655476888020832 9.823516845703125, -108.27738444010417 49.117584228515625, -129.932861328125 58.94110107421875 M0 0 C-21.655476888020832 9.823516845703125, -108.27738444010417 49.117584228515625, -129.932861328125 58.94110107421875" stroke="#000000" stroke-width="1" fill="none"></path></g><g transform="translate(330.5731201171875 322.06019320676523) rotate(0 -64.9664306640625 29.470550537109375)"><path d="M-108.49880703257725 37.95107209721374 C-114.91294779984315 44.23233828750543, -121.32708856710904 50.51360447779711, -129.932861328125 58.94110107421875 M-108.49880703257725 37.95107209721374 C-116.01445204379414 45.31102390059673, -123.53009705501103 52.67097570397972, -129.932861328125 58.94110107421875" stroke="#000000" stroke-width="1" fill="none"></path></g><g transform="translate(330.5731201171875 322.06019320676523) rotate(0 -64.9664306640625 29.470550537109375)"><path d="M-100.02129258812992 56.63935054200438 C-108.97232956053934 57.32814939084461, -117.92336653294875 58.01694823968483, -129.932861328125 58.94110107421875 M-100.02129258812992 56.63935054200438 C-110.50949651253218 57.44643723059675, -120.99770043693445 58.25352391918913, -129.932861328125 58.94110107421875" stroke="#000000" stroke-width="1" fill="none"></path></g></g><g><g transform="translate(602.6792602539062 375.39759555051523) rotate(0 -69.11679077148438 -29.0626220703125)"><path d="M0 0 C-23.038930257161457 -9.687540690104166, -115.1946512858073 -48.437703450520836, -138.23358154296875 -58.125244140625 M0 0 C-23.038930257161457 -9.687540690104166, -115.1946512858073 -48.437703450520836, -138.23358154296875 -58.125244140625" stroke="#000000" stroke-width="1" fill="none"></path></g><g transform="translate(602.6792602539062 375.39759555051523) rotate(0 -69.11679077148438 -29.0626220703125)"><path d="M-108.2695525210245 -56.656583263471326 C-119.35875433840528 -57.200110866388854, -130.44795615578607 -57.74363846930638, -138.23358154296875 -58.125244140625 M-108.2695525210245 -56.656583263471326 C-119.5679150058086 -57.210362694974044, -130.86627749059272 -57.76414212647676, -138.23358154296875 -58.125244140625" stroke="#000000" stroke-width="1" fill="none"></path></g><g transform="translate(602.6792602539062 375.39759555051523) rotate(0 -69.11679077148438 -29.0626220703125)"><path d="M-116.2238406319183 -37.73967804526154 C-124.36928925406973 -45.28404587468412, -132.51473787622115 -52.828413704106694, -138.23358154296875 -58.125244140625 M-116.2238406319183 -37.73967804526154 C-124.5229258726619 -45.42634511644423, -132.8220111134055 -53.11301218762692, -138.23358154296875 -58.125244140625" stroke="#000000" stroke-width="1" fill="none"></path></g></g><g><g transform="translate(465.36993408203125 236.65223422239023) rotate(0 64.85232543945312 -31.8841552734375)"><path d="M0 0 C21.617441813151043 -10.6280517578125, 108.0872090657552 -53.1402587890625, 129.70465087890625 -63.768310546875 M0 0 C21.617441813151043 -10.6280517578125, 108.0872090657552 -53.1402587890625, 129.70465087890625 -63.768310546875" stroke="#000000" stroke-width="1" fill="none"></path></g><g transform="translate(465.36993408203125 236.65223422239023) rotate(0 64.85232543945312 -31.8841552734375)"><path d="M108.93305915287101 -42.12250316607018 C113.63316208525717 -47.020419709310744, 118.33326501764333 -51.918336252551306, 129.70465087890625 -63.768310546875 M108.93305915287101 -42.12250316607018 C113.1833557038817 -46.551682290516474, 117.4336522548924 -50.98086141496276, 129.70465087890625 -63.768310546875" stroke="#000000" stroke-width="1" fill="none"></path></g><g transform="translate(465.36993408203125 236.65223422239023) rotate(0 64.85232543945312 -31.8841552734375)"><path d="M99.87903167639803 -60.5383818809486 C106.62783947711343 -61.26923570256935, 113.37664727782881 -62.0000895241901, 129.70465087890625 -63.768310546875 M99.87903167639803 -60.5383818809486 C105.98196919318389 -61.19929197632615, 112.08490670996973 -61.8602020717037, 129.70465087890625 -63.768310546875" stroke="#000000" stroke-width="1" fill="none"></path></g></g><g><g transform="translate(607.760498046875 221.51215853879648) rotate(0 0.25787353515625 17.5634765625)"><path d="M0 0 C0.08595784505208333 5.8544921875, 0.4297892252604167 29.2724609375, 0.5157470703125 35.126953125 M0 0 C0.08595784505208333 5.8544921875, 0.4297892252604167 29.2724609375, 0.5157470703125 35.126953125" stroke="#000000" stroke-width="1" fill="none"></path></g><g transform="translate(607.760498046875 221.51215853879648) rotate(0 0.25787353515625 17.5634765625)"><path d="M-5.7336375589730775 18.710881747326532 C-3.5857339091233498 24.35305961281813, -1.437830259273622 29.995237478309726, 0.5157470703125 35.126953125 M-5.7336375589730775 18.710881747326532 C-3.3441513339592337 24.98765598234094, -0.9546651089453899 31.26443021735535, 0.5157470703125 35.126953125" stroke="#000000" stroke-width="1" fill="none"></path></g><g transform="translate(607.760498046875 221.51215853879648) rotate(0 0.25787353515625 17.5634765625)"><path d="M6.280487983433471 18.534485860418457 C4.299155615170182 24.237290714291092, 2.317823246906894 29.940095568163727, 0.5157470703125 35.126953125 M6.280487983433471 18.534485860418457 C4.076307920947702 24.87870602281918, 1.8721278584619325 31.222926185219904, 0.5157470703125 35.126953125" stroke="#000000" stroke-width="1" fill="none"></path></g></g><g><g transform="translate(710.6260986328125 224.00654330442148) rotate(0 0.571533203125 17.33355712890625)"><path d="M0 0 C0.19051106770833334 5.777852376302083, 0.9525553385416666 28.889261881510418, 1.14306640625 34.6671142578125 M0 0 C0.19051106770833334 5.777852376302083, 0.9525553385416666 28.889261881510418, 1.14306640625 34.6671142578125" stroke="#000000" stroke-width="1" fill="none"></path></g><g transform="translate(710.6260986328125 224.00654330442148) rotate(0 0.571533203125 17.33355712890625)"><path d="M-5.322424820832879 18.574374399856513 C-2.9199568260485798 24.554166359851585, -0.5174888312642807 30.53395831984666, 1.14306640625 34.6671142578125 M-5.322424820832879 18.574374399856513 C-3.626116823967584 22.796519686849674, -1.9298088271022893 27.018664973842835, 1.14306640625 34.6671142578125" stroke="#000000" stroke-width="1" fill="none"></path></g><g transform="translate(710.6260986328125 224.00654330442148) rotate(0 0.571533203125 17.33355712890625)"><path d="M6.534426566311486 18.18342266376013 C4.5310876430991724 24.308485725437713, 2.5277487198868585 30.433548787115292, 1.14306640625 34.6671142578125 M6.534426566311486 18.18342266376013 C5.119931204352808 22.508139361499428, 3.70543584239413 26.83285605923873, 1.14306640625 34.6671142578125" stroke="#000000" stroke-width="1" fill="none"></path></g></g><g><g transform="translate(604.0362548828125 327.77662387082773) rotate(0 5.2115478515625 16.09332275390625)"><path d="M0 0 C1.7371826171875 5.36444091796875, 8.6859130859375 26.82220458984375, 10.423095703125 32.1866455078125 M0 0 C1.7371826171875 5.36444091796875, 8.6859130859375 26.82220458984375, 10.423095703125 32.1866455078125" stroke="#000000" stroke-width="1" fill="none"></path></g><g transform="translate(604.0362548828125 327.77662387082773) rotate(0 5.2115478515625 16.09332275390625)"><path d="M0.021602089261804736 18.84632321518083 C3.6597135782140517 23.512343461971454, 7.297825067166299 28.17836370876208, 10.423095703125 32.1866455078125 M0.021602089261804736 18.84632321518083 C3.7058758155254754 23.571548336419735, 7.390149541789146 28.296773457658638, 10.423095703125 32.1866455078125" stroke="#000000" stroke-width="1" fill="none"></path></g><g transform="translate(604.0362548828125 327.77662387082773) rotate(0 5.2115478515625 16.09332275390625)"><path d="M11.030083199016326 15.281414528900857 C10.817778287391965 21.19432639819221, 10.605473375767604 27.10723826748356, 10.423095703125 32.1866455078125 M11.030083199016326 15.281414528900857 C10.81508445303792 21.269352477448063, 10.600085707059513 27.25729042599527, 10.423095703125 32.1866455078125" stroke="#000000" stroke-width="1" fill="none"></path></g></g><g><g transform="translate(721.8944091796875 326.3283206481715) rotate(0 -2.7227783203125 15.3018798828125)"><path d="M0 0 C-0.9075927734375 5.100626627604167, -4.5379638671875 25.503133138020832, -5.445556640625 30.603759765625 M0 0 C-0.9075927734375 5.100626627604167, -4.5379638671875 25.503133138020832, -5.445556640625 30.603759765625" stroke="#000000" stroke-width="1" fill="none"></path></g><g transform="translate(721.8944091796875 326.3283206481715) rotate(0 -2.7227783203125 15.3018798828125)"><path d="M-8.120533095663191 15.293451124236446 C-7.2026329207904425 20.547080535746783, -6.284732745917695 25.800709947257122, -5.445556640625 30.603759765625 M-8.120533095663191 15.293451124236446 C-7.515986929100319 18.753589392224942, -6.911440762537448 22.21372766021344, -5.445556640625 30.603759765625" stroke="#000000" stroke-width="1" fill="none"></path></g><g transform="translate(721.8944091796875 326.3283206481715) rotate(0 -2.7227783203125 15.3018798828125)"><path d="M2.346569205680206 17.155941186951054 C-0.3272463576242175 21.770469663182286, -3.001061920928641 26.38499813941352, -5.445556640625 30.603759765625 M2.346569205680206 17.155941186951054 C0.5855444307193256 20.195155664917078, -1.1754803442415547 23.2343701428831, -5.445556640625 30.603759765625" stroke="#000000" stroke-width="1" fill="none"></path></g></g><g><g transform="translate(561.2781982421875 324.527417327859) rotate(0 -50.582275390625 27.62738037109375)"><path d="M0 0 C-16.860758463541668 9.209126790364584, -84.30379231770833 46.045633951822914, -101.16455078125 55.2547607421875 M0 0 C-16.860758463541668 9.209126790364584, -84.30379231770833 46.045633951822914, -101.16455078125 55.2547607421875" stroke="#000000" stroke-width="1" fill="none"></path></g><g transform="translate(561.2781982421875 324.527417327859) rotate(0 -50.582275390625 27.62738037109375)"><path d="M-81.34200745313868 32.73661747936164 C-88.94180584853285 41.36988649047726, -96.54160424392703 50.003155501592886, -101.16455078125 55.2547607421875 M-81.34200745313868 32.73661747936164 C-87.5432147471762 39.78110576415139, -93.74442204121371 46.82559404894114, -101.16455078125 55.2547607421875" stroke="#000000" stroke-width="1" fill="none"></path></g><g transform="translate(561.2781982421875 324.527417327859) rotate(0 -50.582275390625 27.62738037109375)"><path d="M-71.50521813377426 50.746547470127226 C-82.87635981482639 52.4749589773686, -94.24750149587851 54.203370484609984, -101.16455078125 55.2547607421875 M-71.50521813377426 50.746547470127226 C-80.78372830804541 52.15687936160205, -90.06223848231656 53.56721125307688, -101.16455078125 55.2547607421875" stroke="#000000" stroke-width="1" fill="none"></path></g></g><g transform="translate(117.41592407226562 534.9809085387965) rotate(0 294 11.5)"><text x="0" y="18" font-family="Helvetica, Segoe UI Emoji" font-size="19.888608257984345px" fill="#000000" text-anchor="start" style="white-space: pre;" direction="ltr">Create complex dataflow graphs by defining reusable components.</text></g></svg>